<svg fill="#000000" xmlns="http://www.w3.org/2000/svg"  viewBox="0 0 64 64" width="64px" height="64px"><path d="M 13 6 C 9.141 6 6 9.141 6 13 L 6 51 C 6 54.859 9.141 58 13 58 L 51 58 C 54.859 58 58 54.859 58 51 L 58 13 C 58 9.141 54.859 6 51 6 L 13 6 z M 13 8 L 51 8 C 53.757 8 56 10.243 56 13 L 56 51 C 56 53.757 53.757 56 51 56 L 13 56 C 10.243 56 8 53.757 8 51 L 8 13 C 8 10.243 10.243 8 13 8 z M 21.460938 15.966797 A 1.0001 1.0001 0 0 0 20.542969 17.212891 L 21.011719 19.158203 A 1.0004955 1.0004955 0 1 0 22.957031 18.689453 L 22.488281 16.744141 A 1.0001 1.0001 0 0 0 21.460938 15.966797 z M 36 17 C 31.858 17 27.921438 18.852953 25.273438 22.001953 C 19.036437 22.122953 14 27.234 14 33.5 C 14 39.841 19.159 45 25.5 45 L 36 45 C 43.72 45 50 38.72 50 31 C 50 23.28 43.72 17 36 17 z M 16.814453 17.84375 A 1.0001 1.0001 0 0 0 16.009766 19.363281 L 17.025391 21.085938 A 1.0003763 1.0003763 0 1 0 18.748047 20.068359 L 17.730469 18.345703 A 1.0001 1.0001 0 0 0 16.814453 17.84375 z M 36 19 C 42.627 19 48 24.373 48 31 C 48 37.627 42.627 43 36 43 L 25.5 43 C 20.253 43 16 38.747 16 33.5 C 16 28.253 20.253 24 25.5 24 C 25.746 24 25.987516 24.018109 26.228516 24.037109 C 26.237516 24.025109 26.243953 24.012 26.251953 24 C 28.430953 20.972 31.985 19 36 19 z M 36 21 C 33.06 21 30.309453 22.300937 28.439453 24.460938 C 29.119453 24.680938 29.759609 24.969844 30.349609 25.339844 C 31.829609 23.869844 33.85 23 36 23 C 40.41 23 44 26.59 44 31 C 44 35.41 40.41 39 36 39 C 32.49 39 30.730547 37.250312 28.310547 34.820312 C 27.640547 34.160312 26.949922 33.469766 26.169922 32.759766 C 25.759922 32.389766 25.129766 32.420078 24.759766 32.830078 C 24.389766 33.240078 24.420078 33.870234 24.830078 34.240234 C 25.570078 34.920234 26.250391 35.590234 26.900391 36.240234 C 29.450391 38.790234 31.66 41 36 41 C 41.51 41 46 36.51 46 31 C 46 25.49 41.51 21 36 21 z M 12.927734 21.001953 A 1.0001 1.0001 0 0 0 12.304688 22.748047 L 13.777344 24.099609 A 1.0001 1.0001 0 1 0 15.130859 22.626953 L 13.658203 21.275391 A 1.0001 1.0001 0 0 0 12.927734 21.001953 z M 25.5 26 C 21.364 26 18 29.364 18 33.5 C 18 37.64 21.36 41 25.5 41 L 29.310547 41 C 28.420547 40.41 27.619141 39.72 26.869141 39 L 25.5 39 C 22.47 39 20 36.53 20 33.5 C 20 30.467 22.468 28 25.5 28 C 28.205 28 29.976797 29.642703 32.216797 31.720703 C 32.580797 32.058703 32.950031 32.402141 33.332031 32.744141 C 33.744031 33.113141 34.375141 33.079969 34.744141 32.667969 C 35.113141 32.256969 35.078969 31.624859 34.667969 31.255859 C 34.293969 30.920859 33.933172 30.584906 33.576172 30.253906 C 31.218172 28.065906 28.99 26 25.5 26 z M 47.564453 43.085938 A 1.0001 1.0001 0 0 0 46.865234 44.757812 L 48.193359 46.253906 A 1.0001 1.0001 0 1 0 49.689453 44.927734 L 48.361328 43.431641 A 1.0001 1.0001 0 0 0 47.564453 43.085938 z M 43.859375 45.628906 A 1.0001 1.0001 0 0 0 42.951172 47.087891 L 43.845703 48.876953 A 1.0001165 1.0001165 0 1 0 45.634766 47.982422 L 44.740234 46.193359 A 1.0001 1.0001 0 0 0 43.859375 45.628906 z M 39.523438 47.125 A 1.0001 1.0001 0 0 0 38.568359 48.341797 L 38.974609 50.300781 A 1.0005313 1.0005313 0 1 0 40.933594 49.892578 L 40.525391 47.935547 A 1.0001 1.0001 0 0 0 39.523438 47.125 z"/></svg>