<svg xmlns="http://www.w3.org/2000/svg" viewBox="0 0 302.16 184.96"><defs><style>.cls-1{fill:#231f20;}.cls-2{fill:#bb203c;}</style></defs><g id="Layer_2" data-name="Layer 2"><g id="Layer_1-2" data-name="Layer 1"><path class="cls-1" d="M190.1,14.75,127.55,163.2H112.41L175,14.75Z"/><path class="cls-2" d="M146.77,60.46q-5.61-2.84-11.45-5.2t-11.44-4.61a61.19,61.19,0,0,1-10-5,26.74,26.74,0,0,1-7.06-6.2,13.07,13.07,0,0,1-2.69-8.29,14.58,14.58,0,0,1,6.56-12.5Q117.27,14,131.22,14a92,92,0,0,1,13.59,1.05,110.18,110.18,0,0,1,14,3.06V3.56q-3-.74-6.52-1.37t-7.12-1.14q-3.6-.5-7.11-.78T131.58,0a63.32,63.32,0,0,0-20.1,2.83,41,41,0,0,0-13.82,7.43,28.88,28.88,0,0,0-7.93,10.53,30.19,30.19,0,0,0-2.55,12A25.57,25.57,0,0,0,89.87,45a30.3,30.3,0,0,0,7.06,8.89,47,47,0,0,0,10,6.57q5.61,2.79,11.44,5.15t11.45,4.61a65.81,65.81,0,0,1,10,4.92c.83.51,1.6,1,2.33,1.59l6.43-15.26C148,61.1,147.38,60.76,146.77,60.46Z"/><path class="cls-2" d="M120.46,108.15a116,116,0,0,1-19.38-1.46,85.78,85.78,0,0,1-15.36-4v15.68c2.06.55,4.37,1.06,6.93,1.55s5.27.91,8.16,1.28,5.89.66,9,.91,6.28.36,9.44.36c1.22,0,2.41,0,3.59-.07l6.19-14.69A74.76,74.76,0,0,1,120.46,108.15Z"/><path class="cls-2" d="M219.8,85.38a31.75,31.75,0,0,0-9.8-11.3,41.05,41.05,0,0,0-14.28-6.34,71.81,71.81,0,0,0-17-2h-1.91l-5.68,13.49H178q13.5,0,21,6.11t7.52,17.6q0,12.76-7.79,19.06t-22.21,6.29H161.44v-26l-16.23,38.52V185h16.23V142.19h14.77q12.4,0,21.34-3.51a43.09,43.09,0,0,0,14.68-9.16,35.67,35.67,0,0,0,8.48-12.82,40.27,40.27,0,0,0,2.73-14.45Q223.44,92.32,219.8,85.38Z"/><path class="cls-1" d="M71.22,128l-9.94,10L0,86.88,61.28,35.72l9.94,10.12L21.52,86.69Z"/><path class="cls-1" d="M231,50l9.84-10.12,61.28,51.15-61.28,51.16-9.84-10,49.69-40.95Z"/></g></g></svg>